#N canvas 17 23 1263 687 10;
#X obj 221 48 tgl 15 0 empty empty empty 17 7 0 10 -262144 -1 -1 0
1;
#X obj 221 91 f;
#X obj 251 91 + 1;
#X floatatom 221 135 5 0 15 0 - - -;
#X obj 221 338 mtof;
#X obj 221 395 osc~;
#X obj 213 470 dac~;
#N canvas 107 23 1020 686 (subpatch) 0;
#X array notas 8 float 3;
#A 0 0 1 2 3 4 5 6 7;
#X coords 0 8 8 0 400 340 1 0 0;
#X restore 470 48 graph;
#X obj 221 234 tabread scale;
#X obj 221 210 i;
#X obj 221 69 metro 300;
#X obj 259 395 tgl 15 0 empty empty empty 17 7 0 10 -262144 -1 -1 0
1;
#X floatatom 179 396 5 0 0 0 - - -;
#X floatatom 254 260 5 0 0 0 - - -;
#X obj 221 159 tabread notas;
#X msg 916 275 \; notas yticks 0 1 1;
#X obj 221 287 + 60;
#X obj 915 101 table scale;
#X obj 221 112 % 8;
#X msg 915 47 \; notas 0 0 1 2 3 4 5 6 7 8;
#X msg 915 140 \; scale 0 0 2 4 7 9 12 14 16;
#X msg 916 317 \; notas xlabel 0 0 1 2 3 4 5 6 7 8;
#X msg 916 366 \; notas ylabel 0 1 2 3 4 5 6 7 8;
#N canvas 718 57 484 446 midi 0;
#X obj 96 65 inlet;
#X obj 96 262 noteout;
#X floatatom 96 92 0 0 0 0 - - -;
#X obj 204 46 loadbang;
#X obj 96 184 metro;
#X obj 96 236 makenote;
#X floatatom 189 166 0 0 0 0 - - -;
#X obj 96 210 f;
#X floatatom 145 166 0 0 0 0 - - -;
#X floatatom 233 166 0 0 0 0 - - -;
#X floatatom 276 166 0 0 0 0 - - -;
#X msg 159 97 500;
#X msg 191 97 60;
#X msg 220 97 64;
#X msg 248 97 250;
#X text 144 145 rate;
#X text 187 145 pitch;
#X text 232 145 vel;
#X text 268 146 length;
#X obj 230 257 ctlout 1;
#X floatatom 230 228 0 0 0 0 - - -;
#X connect 0 0 2 0;
#X connect 2 0 4 0;
#X connect 2 0 7 1;
#X connect 3 0 11 0;
#X connect 3 0 12 0;
#X connect 3 0 13 0;
#X connect 3 0 14 0;
#X connect 4 0 7 0;
#X connect 5 0 1 0;
#X connect 5 1 1 1;
#X connect 7 0 5 0;
#X connect 8 0 4 1;
#X connect 9 0 5 1;
#X connect 10 0 5 2;
#X connect 11 0 8 0;
#X connect 12 0 6 0;
#X connect 13 0 9 0;
#X connect 14 0 10 0;
#X connect 20 0 19 0;
#X restore 349 384 pd midi;
#X obj 389 348 tgl 20 0 empty empty empty 20 8 0 8 -262144 -1 -1 0
1;
#X floatatom 349 330 5 0 0 0 - - -;
#X obj 221 433 *~ 0.1;
#X text 1089 134 Estructura de la escala pentatónica mayor en notas
midi (se suma la caja numérica +60 que está en el patch., f 21;
#X text 48 471 Conversor análogo/digital.;
#X text 105 398 Frecuencia.;
#X text 16 335 Conversor de número de nota midi a frecuencia., f
32;
#X text 10 283 Caja numérica para que la nota midi comience en do
central (60)., f 33;
#X text 4 205 Reconoce las notas midi escogidas para utilizar en el
gráfico (en este caso fue escogida una escala pentatónica de do mayor).
, f 34;
#X text 29 155 Reconoce las notas midi de la tabla/gáfico en el medio.
, f 30;
#X text 64 109 Módulo de 8 notas que se repiten en un loop., f 24
;
#X text 147 70 Metrónomo.;
#X text 1086 29 Posición inicial de las notas en el gráfico (al hacer
click en este mensaje \, se vuelve a la posición inicial)., f 22
;
#X msg 915 224 \; notas xticks 0 1 1;
#X text 347 406 salida MIDI para conexión con otro software., f 13
;
#X text 279 331 Nota midi.;
#X text 520 407 Gráfico interactivo donde pueden ser escogidas 8 notas
diferentes (en este caso \, todas pertenecientes a la escala pentatónica
de do mayor). ** Las notas pueden ser modificadas en la estructura
\; scale., f 53;
#X text 1123 368 Números de división del gráfico en el eje Y.,
f 20;
#X text 1123 315 Números de división del gráfico en el eje X.,
f 20;
#X text 1034 280 División del gráfico en el eje Y.;
#X text 1032 229 División del gráfico en el eje X.;
#X connect 0 0 10 0;
#X connect 1 0 2 0;
#X connect 1 0 18 0;
#X connect 2 0 1 1;
#X connect 3 0 14 0;
#X connect 4 0 5 0;
#X connect 4 0 12 0;
#X connect 5 0 26 0;
#X connect 8 0 13 0;
#X connect 8 0 16 0;
#X connect 9 0 8 0;
#X connect 10 0 1 0;
#X connect 11 0 26 1;
#X connect 14 0 9 0;
#X connect 16 0 4 0;
#X connect 16 0 25 0;
#X connect 18 0 3 0;
#X connect 24 0 23 0;
#X connect 25 0 23 0;
#X connect 26 0 6 0;
#X connect 26 0 6 1;
